<svg width="332" height="73" viewBox="0 0 332 73" fill="none" xmlns="http://www.w3.org/2000/svg">
<path d="M71.2683 62.4918C70.0426 62.6869 68.6943 62.9065 67.2233 63.1504C65.7524 63.3943 64.4286 63.6138 63.2519 63.8089C63.448 62.1991 63.6441 60.6138 63.8403 59.0528C63.9873 57.687 64.1099 56.3211 64.208 54.9553C64.3551 53.5894 64.4776 52.4187 64.5757 51.4431H58.1773L55.2354 61.9796C54.1568 62.126 52.882 62.2967 51.4111 62.4918C49.9402 62.6382 48.5673 62.7845 47.2925 62.9308C45.7236 63.126 44.1791 63.3211 42.6592 63.5162C44.6204 57.0284 46.5571 50.6382 48.4693 44.3455C49.2537 41.7114 50.0627 38.9553 50.8963 36.0773C51.7788 33.1992 52.6368 30.3456 53.4704 27.5163C54.3529 24.6383 55.1864 21.8822 55.9709 19.2481C56.7554 16.6139 57.4418 14.1993 58.0302 12.0042C61.3642 11.7603 64.7473 11.4676 68.1794 11.1261C71.6606 10.7847 75.0437 10.3213 78.3287 9.7359C78.1816 11.2969 78.01 13.2481 77.8139 15.5895C77.6668 17.8822 77.5197 20.3944 77.3726 23.1261C77.2255 25.8578 77.0784 28.7114 76.9313 31.687C76.7842 34.6626 76.6372 37.5895 76.4901 40.4675C76.2449 47.1992 75.9752 54.3455 75.6811 61.9065C74.2102 62.1504 72.7392 62.3455 71.2683 62.4918ZM59.9423 44.126C60.1385 44.126 60.4817 44.126 60.972 44.126C61.5113 44.0772 62.0506 44.0529 62.59 44.0529C63.1783 44.0041 63.7177 43.9797 64.208 43.9797C64.6983 43.9309 65.0415 43.8821 65.2376 43.8333C65.2376 43.5407 65.2621 43.0529 65.3112 42.3699C65.4092 41.6382 65.4828 40.8334 65.5318 39.9553C65.6299 39.0285 65.7279 38.0285 65.826 36.9553C65.924 35.8822 66.0221 34.8334 66.1202 33.809C66.3163 31.3212 66.5614 28.6383 66.8556 25.7602L67.2969 19.3944L66.1937 19.4676L64.5022 25.7602L59.9423 44.126Z" fill="white"/>
<path d="M113.455 26.5651C113.455 29.1017 113.088 31.809 112.352 34.687C111.617 37.5163 110.587 40.3456 109.263 43.1748C107.939 45.9553 106.297 48.6382 104.336 51.2236C102.423 53.7601 100.242 56.004 97.7901 57.9552C95.3386 59.8577 92.6419 61.3943 89.7001 62.565C86.8073 63.7357 83.7184 64.3211 80.4334 64.3211C79.7469 64.3211 79.0605 64.2723 78.3741 64.1747C77.6877 64.126 77.0012 64.0528 76.3148 63.9552C77.6386 57.2235 78.9379 50.6626 80.2127 44.2724C80.703 41.5895 81.2178 38.809 81.7572 35.9309C82.2965 33.0041 82.8113 30.1261 83.3016 27.2968C83.7919 24.4676 84.2577 21.7602 84.699 19.1749C85.1893 16.5895 85.5815 14.2481 85.8757 12.1505C87.984 11.7603 90.1168 11.3944 92.2742 11.053C94.4315 10.7115 96.6379 10.5408 98.8932 10.5408C101.541 10.5408 103.772 10.9554 105.586 11.7847C107.449 12.6139 108.944 13.7603 110.072 15.2237C111.249 16.6871 112.107 18.3944 112.646 20.3456C113.186 22.2968 113.455 24.37 113.455 26.5651ZM96.0985 20.8578C95.5592 23.7359 94.9953 26.4919 94.407 29.1261C93.8186 31.7602 93.2303 34.4187 92.6419 37.1017C92.0535 39.7846 91.4652 42.5895 90.8768 45.5163C90.2884 48.4431 89.7246 51.6382 89.1853 55.1016C90.362 54.3211 91.4897 53.2723 92.5683 51.9553C93.696 50.5894 94.7502 49.0285 95.7308 47.2724C96.7114 45.5163 97.5939 43.6626 98.3784 41.7114C99.2119 39.7602 99.9229 37.8578 100.511 36.0041C101.1 34.1505 101.541 32.4188 101.835 30.809C102.178 29.1992 102.35 27.809 102.35 26.6383C102.35 24.8334 101.835 23.4188 100.805 22.3944C99.8248 21.37 98.2559 20.8578 96.0985 20.8578Z" fill="white"/>
<path d="M135.549 62.4918C134.323 62.6869 132.975 62.9065 131.504 63.1504C130.033 63.3943 128.709 63.6138 127.532 63.8089C127.728 62.1991 127.925 60.6138 128.121 59.0528C128.268 57.687 128.39 56.3211 128.488 54.9553C128.635 53.5894 128.758 52.4187 128.856 51.4431H122.458L119.516 61.9796C118.437 62.126 117.162 62.2967 115.691 62.4918C114.221 62.6382 112.848 62.7845 111.573 62.9308C110.004 63.126 108.46 63.3211 106.94 63.5162C108.901 57.0284 110.837 50.6382 112.75 44.3455C113.534 41.7114 114.343 38.9553 115.177 36.0773C116.059 33.1992 116.917 30.3456 117.751 27.5163C118.633 24.6383 119.467 21.8822 120.251 19.2481C121.036 16.6139 121.722 14.1993 122.311 12.0042C125.645 11.7603 129.028 11.4676 132.46 11.1261C135.941 10.7847 139.324 10.3213 142.609 9.7359C142.462 11.2969 142.29 13.2481 142.094 15.5895C141.947 17.8822 141.8 20.3944 141.653 23.1261C141.506 25.8578 141.359 28.7114 141.212 31.687C141.065 34.6626 140.918 37.5895 140.77 40.4675C140.525 47.1992 140.256 54.3455 139.961 61.9065C138.491 62.1504 137.02 62.3455 135.549 62.4918ZM124.223 44.126C124.419 44.126 124.762 44.126 125.252 44.126C125.792 44.0772 126.331 44.0529 126.87 44.0529C127.459 44.0041 127.998 43.9797 128.488 43.9797C128.979 43.9309 129.322 43.8821 129.518 43.8333C129.518 43.5407 129.543 43.0529 129.592 42.3699C129.69 41.6382 129.763 40.8334 129.812 39.9553C129.91 39.0285 130.008 38.0285 130.106 36.9553C130.204 35.8822 130.302 34.8334 130.401 33.809C130.597 31.3212 130.842 28.6383 131.136 25.7602L131.577 19.3944L130.474 19.4676L128.783 25.7602L124.223 44.126Z" fill="white"/>
<path d="M155.18 64.0284C156.651 57.1992 158.024 50.565 159.299 44.126C159.789 41.3456 160.304 38.4675 160.843 35.4919C161.383 32.5163 161.873 29.5651 162.314 26.6383C162.804 23.7115 163.221 20.8822 163.564 18.1505C163.957 15.37 164.251 12.8578 164.447 10.6139C165.575 10.7115 166.849 10.8091 168.271 10.9066C169.693 10.9554 171.017 11.0286 172.243 11.1261C173.714 11.2237 175.185 11.2725 176.655 11.2725C176.606 11.4676 176.533 11.8335 176.435 12.37C176.337 12.9066 176.214 13.5652 176.067 14.3456C175.92 15.0773 175.748 15.9066 175.552 16.8334C175.405 17.7603 175.234 18.6871 175.037 19.6139C174.645 21.7602 174.204 24.1749 173.714 26.8578L174.155 26.7846C174.645 26.0041 175.332 24.931 176.214 23.5651C177.146 22.1505 178.102 20.6627 179.082 19.1017C180.063 17.5407 181.019 16.053 181.951 14.6383C182.882 13.1749 183.667 11.931 184.304 10.9066C186.756 10.7115 189.207 10.492 191.659 10.2481C194.11 10.0042 196.562 9.68712 199.013 9.29688C196.709 12.37 194.478 15.3944 192.321 18.37C191.389 19.6383 190.433 20.9554 189.452 22.3212C188.521 23.6871 187.589 25.0285 186.658 26.3456C185.726 27.6627 184.843 28.931 184.01 30.1505C183.225 31.37 182.515 32.4919 181.877 33.5163C182.956 38.4431 184.231 43.1992 185.702 47.7846C187.172 52.3699 188.668 57.0528 190.188 61.8333C189.06 61.7845 187.908 61.7601 186.731 61.7601C185.554 61.7113 184.402 61.6869 183.275 61.6869C181.853 61.6869 180.48 61.7113 179.156 61.7601C177.832 61.7601 176.459 61.7845 175.037 61.8333C174.596 58.6626 174.106 55.3455 173.567 51.8821C173.076 48.3699 172.61 45.0285 172.169 41.8577L170.845 43.3943C170.502 44.8577 170.11 46.6626 169.669 48.8089C169.276 50.9553 168.884 53.0284 168.492 55.0284C168.051 57.3699 167.585 59.7845 167.095 62.2723L155.18 64.0284Z" fill="white"/>
<path d="M189.225 64.0284L198.86 12.0042L222.1 10.0286C221.757 11.1017 221.463 12.1993 221.218 13.3213C220.972 14.2481 220.727 15.2237 220.482 16.2481C220.286 17.2237 220.114 18.1017 219.967 18.8822C219.477 18.931 218.766 18.9798 217.835 19.0286C216.952 19.0286 215.996 19.0529 214.966 19.1017C213.937 19.1017 212.882 19.1017 211.804 19.1017C210.774 19.1017 209.867 19.1017 209.083 19.1017L206.509 32.1992C208.028 32.1017 209.45 32.0285 210.774 31.9797C211.853 31.9309 212.956 31.9066 214.084 31.9066C215.211 31.9066 216.045 31.8822 216.584 31.8334C216.388 33.1992 216.192 34.5407 215.996 35.8578C215.849 37.1748 215.653 38.5163 215.408 39.8821C214.917 39.9309 214.108 39.9797 212.981 40.0285C211.902 40.0285 210.799 40.0529 209.671 40.1017C208.396 40.1504 206.999 40.1992 205.479 40.248L202.978 53.7114L213.716 52.0284L212.981 60.3699L189.225 64.0284Z" fill="white"/>
<path d="M226.205 62.4918C225.764 62.4918 224.882 62.565 223.558 62.7113C222.283 62.8089 220.959 62.9552 219.586 63.1504C218.214 63.2967 216.963 63.443 215.836 63.5894C214.757 63.7357 214.169 63.8333 214.07 63.8821C214.561 61.7845 215.051 59.4674 215.541 56.9309C216.081 54.3455 216.62 51.6626 217.159 48.8821C217.699 46.0529 218.214 43.1992 218.704 40.3212C219.194 37.4431 219.66 34.6626 220.101 31.9797C221.131 25.7358 222.16 19.3212 223.19 12.7359L234.663 10.9066C233.536 17.4432 232.432 23.8578 231.354 30.1505C230.912 32.8334 230.447 35.6139 229.956 38.4919C229.515 41.3699 229.049 44.2236 228.559 47.0528C228.118 49.8821 227.701 52.6382 227.309 55.3211C226.916 57.9553 226.549 60.3455 226.205 62.4918Z" fill="white"/>
<path d="M235.189 64.0284C236.317 58.6626 237.395 53.3699 238.425 48.1504C238.866 45.9553 239.307 43.6626 239.749 41.2724C240.19 38.8821 240.607 36.5407 240.999 34.248C241.44 31.9066 241.808 29.6627 242.102 27.5163C242.445 25.3212 242.74 23.3212 242.985 21.5163C241.857 21.37 240.705 21.3212 239.528 21.37C238.4 21.4188 237.273 21.2724 236.145 20.931C236.194 20.1505 236.219 19.2481 236.219 18.2237C236.219 17.1993 236.243 16.1749 236.292 15.1505C236.341 14.0286 236.39 12.8334 236.439 11.5652C237.714 11.6627 238.989 11.7359 240.264 11.7847C241.538 11.8335 242.813 11.8578 244.088 11.8578C246.588 11.8578 248.991 11.8091 251.295 11.7115C253.649 11.5652 255.806 11.4188 257.767 11.2725C259.778 11.0774 261.739 10.8578 263.651 10.6139L262.842 14.5652C262.597 15.6871 262.352 16.8334 262.107 18.0042C261.91 19.1749 261.714 20.1749 261.518 21.0042C260.44 21.2968 259.336 21.5163 258.209 21.6627C257.13 21.7602 256.051 21.9066 254.973 22.1017C254.629 23.7602 254.262 25.6139 253.869 27.6627C253.477 29.6627 253.085 31.7602 252.693 33.9553C252.35 36.1017 252.006 38.2968 251.663 40.5407C251.32 42.7846 250.977 44.9309 250.633 46.9797C249.849 51.8089 249.114 56.8089 248.427 61.9796L235.189 64.0284Z" fill="white"/>
<path d="M282.28 62.4918C281.055 62.6869 279.706 62.9065 278.235 63.1504C276.764 63.3943 275.441 63.6138 274.264 63.8089C274.46 62.1991 274.656 60.6138 274.852 59.0528C274.999 57.687 275.122 56.3211 275.22 54.9553C275.367 53.5894 275.49 52.4187 275.588 51.4431H269.189L266.248 61.9796C265.169 62.126 263.894 62.2967 262.423 62.4918C260.952 62.6382 259.579 62.7845 258.305 62.9308C256.736 63.126 255.191 63.3211 253.671 63.5162C255.632 57.0284 257.569 50.6382 259.481 44.3455C260.266 41.7114 261.075 38.9553 261.908 36.0773C262.791 33.1992 263.649 30.3456 264.482 27.5163C265.365 24.6383 266.198 21.8822 266.983 19.2481C267.767 16.6139 268.454 14.1993 269.042 12.0042C272.376 11.7603 275.759 11.4676 279.191 11.1261C282.673 10.7847 286.056 10.3213 289.341 9.7359C289.194 11.2969 289.022 13.2481 288.826 15.5895C288.679 17.8822 288.532 20.3944 288.385 23.1261C288.238 25.8578 288.09 28.7114 287.943 31.687C287.796 34.6626 287.649 37.5895 287.502 40.4675C287.257 47.1992 286.987 54.3455 286.693 61.9065C285.222 62.1504 283.751 62.3455 282.28 62.4918ZM270.954 44.126C271.151 44.126 271.494 44.126 271.984 44.126C272.523 44.0772 273.063 44.0529 273.602 44.0529C274.19 44.0041 274.73 43.9797 275.22 43.9797C275.71 43.9309 276.054 43.8821 276.25 43.8333C276.25 43.5407 276.274 43.0529 276.323 42.3699C276.421 41.6382 276.495 40.8334 276.544 39.9553C276.642 39.0285 276.74 38.0285 276.838 36.9553C276.936 35.8822 277.034 34.8334 277.132 33.809C277.328 31.3212 277.574 28.6383 277.868 25.7602L278.309 19.3944L277.206 19.4676L275.514 25.7602L270.954 44.126Z" fill="white"/>
<path d="M13.3261 36.5001C14.6096 37.5417 15.6439 38.8504 16.3548 40.3324C18.172 44.0303 18.172 48.55 18.172 52.9352C18.172 62.0156 18.5506 66.3821 27.258 66.3821C28.0612 66.3821 28.8316 66.697 29.3996 67.2574C29.9676 67.8178 30.2867 68.5778 30.2867 69.3703C30.2867 70.1629 29.9676 70.9229 29.3996 71.4833C28.8316 72.0437 28.0612 72.3586 27.258 72.3586C20.6404 72.3586 16.1579 70.0651 13.9319 65.538C12.1147 61.8401 12.1147 57.3204 12.1147 52.9352C12.1147 43.8548 11.7361 39.4883 3.02867 39.4883C2.22541 39.4883 1.45506 39.1735 0.887076 38.6131C0.319091 38.0527 0 37.2926 0 36.5001C0 35.7076 0.319091 34.9475 0.887076 34.3871C1.45506 33.8267 2.22541 33.5119 3.02867 33.5119C11.7361 33.5119 12.1147 29.1454 12.1147 20.0649C12.1147 15.6872 12.1147 11.1601 13.9319 7.46218C16.1655 2.93505 20.6479 0.641602 27.2656 0.641602C28.0688 0.641602 28.8392 0.95643 29.4072 1.51683C29.9751 2.07722 30.2942 2.83729 30.2942 3.62981C30.2942 4.42233 29.9751 5.18239 29.4072 5.74279C28.8392 6.30319 28.0688 6.61801 27.2656 6.61801C18.5581 6.61801 18.1796 10.9845 18.1796 20.0649C18.1796 24.4427 18.1796 28.9698 16.3624 32.6677C15.6492 34.1505 14.6124 35.4593 13.3261 36.5001Z" fill="white"/>
<path d="M328.971 33.5119C320.261 33.5119 319.882 29.1454 319.882 20.0649C319.882 15.6872 319.882 11.1601 318.065 7.46218C315.838 2.93505 311.355 0.641602 304.735 0.641602C303.932 0.641602 303.161 0.95643 302.593 1.51683C302.025 2.07722 301.706 2.83729 301.706 3.62981C301.706 4.42233 302.025 5.18239 302.593 5.74279C303.161 6.30319 303.932 6.61801 304.735 6.61801C313.445 6.61801 313.824 10.9845 313.824 20.0649C313.824 24.4427 313.824 28.9698 315.641 32.6677C316.352 34.1498 317.387 35.4585 318.671 36.5001C317.387 37.5417 316.352 38.8504 315.641 40.3324C313.824 44.0303 313.824 48.55 313.824 52.9352C313.824 62.0156 313.445 66.3821 304.735 66.3821C303.932 66.3821 303.161 66.697 302.593 67.2574C302.025 67.8178 301.706 68.5778 301.706 69.3703C301.706 70.1629 302.025 70.9229 302.593 71.4833C303.161 72.0437 303.932 72.3586 304.735 72.3586C311.355 72.3586 315.838 70.0651 318.065 65.538C319.882 61.8401 319.882 57.3204 319.882 52.9352C319.882 43.8548 320.261 39.4883 328.971 39.4883C329.774 39.4883 330.545 39.1735 331.113 38.6131C331.681 38.0527 332 37.2926 332 36.5001C332 35.7076 331.681 34.9475 331.113 34.3871C330.545 33.8267 329.774 33.5119 328.971 33.5119Z" fill="white"/>
</svg>
