<svg width="59" height="15" viewBox="0 0 59 15" fill="none" xmlns="http://www.w3.org/2000/svg">
<path d="M15.6566 7.0285C15.6566 7.94732 15.4392 8.86615 15.0043 9.78497C14.6177 10.7038 14.0378 11.5259 13.2646 12.2513C12.4915 12.9283 11.525 13.4603 10.3653 13.8472C9.20551 14.2824 7.87663 14.5 6.37862 14.5C5.36384 14.5 4.44571 14.3066 3.62422 13.9197C2.80273 13.5328 2.12621 13.025 1.59466 12.3964C1.11143 11.7193 0.724844 10.9698 0.434906 10.1477C0.144969 9.32556 0 8.50345 0 7.68135C0 6.76252 0.144969 5.89206 0.434906 5.06995C0.724844 4.19948 1.15975 3.44991 1.73962 2.82124C2.36782 2.14421 3.11683 1.58808 3.98664 1.15285C4.90477 0.717616 5.99204 0.5 7.24844 0.5C10.0512 0.5 12.1532 1.17703 13.5546 2.53109C14.9559 3.83679 15.6566 5.33592 15.6566 7.0285Z" fill="white"/>
<path d="M37.3283 7.0285C37.3283 7.94732 37.1109 8.86615 36.6759 9.78497C36.2894 10.7038 35.7095 11.5259 34.9363 12.2513C34.1632 12.9283 33.1967 13.4603 32.037 13.8472C30.8772 14.2824 29.5483 14.5 28.0503 14.5C27.0355 14.5 26.1174 14.3066 25.2959 13.9197C24.4744 13.5328 23.7979 13.025 23.2663 12.3964C22.7831 11.7193 22.3965 10.9698 22.1066 10.1477C21.8167 9.32556 21.6717 8.50345 21.6717 7.68135C21.6717 6.76252 21.8167 5.89206 22.1066 5.06995C22.3965 4.19948 22.8314 3.44991 23.4113 2.82124C24.0395 2.14421 24.7885 1.58808 25.6583 1.15285C26.5765 0.717616 27.6637 0.5 28.9201 0.5C31.7229 0.5 33.8249 1.17703 35.2263 2.53109C36.6276 3.83679 37.3283 5.33592 37.3283 7.0285Z" fill="white"/>
<path d="M59 7.0285C59 7.94732 58.7825 8.86615 58.3476 9.78497C57.9611 10.7038 57.3812 11.5259 56.608 12.2513C55.8349 12.9283 54.8684 13.4603 53.7086 13.8472C52.5489 14.2824 51.22 14.5 49.722 14.5C48.7072 14.5 47.7891 14.3066 46.9676 13.9197C46.1461 13.5328 45.4696 13.025 44.938 12.3964C44.4548 11.7193 44.0682 10.9698 43.7783 10.1477C43.4883 9.32556 43.3434 8.50345 43.3434 7.68135C43.3434 6.76252 43.4883 5.89206 43.7783 5.06995C44.0682 4.19948 44.5031 3.44991 45.083 2.82124C45.7112 2.14421 46.4602 1.58808 47.33 1.15285C48.2482 0.717616 49.3354 0.5 50.5918 0.5C53.3945 0.5 55.4966 1.17703 56.898 2.53109C58.2993 3.83679 59 5.33592 59 7.0285Z" fill="white"/>
</svg>
