<?xml version="1.0" standalone="no"?>
<!DOCTYPE svg PUBLIC "-//W3C//DTD SVG 20010904//EN"
 "http://www.w3.org/TR/2001/REC-SVG-20010904/DTD/svg10.dtd">
<svg version="1.0" xmlns="http://www.w3.org/2000/svg"
 width="163.000000pt" height="163.000000pt" viewBox="0 0 163.000000 163.000000"
 preserveAspectRatio="xMidYMid meet">
<metadata>
Created by potrace 1.14, written by Peter Selinger 2001-2017
</metadata>
<g transform="translate(0.000000,163.000000) scale(0.100000,-0.100000)"
fill="#000000" stroke="none">
<path d="M325 1354 c-110 -37 -144 -105 -149 -293 -2 -59 -9 -117 -15 -129
-13 -24 -56 -46 -72 -37 -17 11 -79 -27 -85 -51 -9 -33 14 -83 40 -89 27 -6
67 -13 83 -14 31 -2 46 -51 48 -159 3 -117 16 -182 47 -224 30 -43 97 -77 165
-84 57 -6 63 -5 87 19 14 14 26 37 26 52 0 23 -29 63 -47 66 -5 1 -18 3 -29 4
-48 5 -74 16 -85 37 -6 12 -13 69 -14 127 -3 110 -16 179 -42 219 -12 20 -12
26 0 45 27 41 37 92 41 209 6 154 12 164 102 173 70 6 97 73 49 121 -20 20
-33 24 -70 23 -25 -2 -61 -8 -80 -15z"/>
<path d="M1156 1347 c-55 -55 -14 -127 74 -127 35 0 70 -30 71 -62 1 -13 2
-67 4 -121 4 -98 16 -153 42 -194 12 -19 12 -25 0 -45 -26 -39 -38 -106 -42
-219 -5 -144 -9 -151 -100 -164 -72 -10 -98 -73 -49 -122 24 -24 30 -25 86
-19 105 11 174 65 198 157 6 20 12 90 14 154 5 136 16 158 83 161 21 1 41 3
45 3 18 2 48 47 48 71 0 46 -46 75 -127 79 -30 2 -46 51 -49 154 -3 103 -7
138 -20 180 -22 71 -102 127 -194 134 -53 5 -61 3 -84 -20z"/>
<path d="M1249 1136 c-2 -2 -35 -7 -74 -11 -38 -4 -80 -8 -93 -9 -12 -2 -29
-11 -38 -22 -14 -16 -15 -17 -10 -1 5 15 -2 17 -47 18 -29 0 -71 3 -94 5 -30
3 -43 0 -44 -8 -1 -18 -6 -54 -30 -203 -28 -176 -28 -176 -49 -269 l-19 -81 5
130 c8 211 14 337 20 388 5 47 4 47 -23 43 -56 -9 -109 -16 -168 -22 -33 -3
-61 -7 -63 -9 -4 -3 -154 -506 -165 -553 -6 -24 1 -25 98 -7 11 2 34 4 51 4
28 1 33 5 44 46 13 47 35 75 26 33 -3 -12 -8 -40 -11 -61 l-5 -39 42 6 c24 3
67 10 96 15 30 4 52 4 52 -1 0 -9 18 -8 127 7 49 7 52 9 59 44 l8 36 5 -34 6
-35 108 -1 c126 -2 118 -19 68 140 -58 181 -62 153 50 309 55 76 99 139 99
142 0 5 -25 5 -31 0z"/>
</g>
</svg>
