<svg width="348" height="159" viewBox="0 0 348 159" fill="none" xmlns="http://www.w3.org/2000/svg">
<path d="M166 102.182V28H196.933C202.487 28 207.136 28.7848 210.879 30.3544C214.646 31.924 217.471 34.1214 219.354 36.9467C221.262 39.772 222.216 43.044 222.216 46.7628C222.216 49.5881 221.624 52.1115 220.441 54.3331C219.258 56.5305 217.628 58.3537 215.551 59.8026C213.474 61.2514 211.072 62.2656 208.343 62.8452V63.5696C211.337 63.7145 214.102 64.5234 216.638 65.9964C219.197 67.4695 221.25 69.522 222.795 72.1541C224.341 74.7621 225.114 77.853 225.114 81.4268C225.114 85.4112 224.099 88.973 222.071 92.1122C220.043 95.2273 217.109 97.6903 213.269 99.5014C209.43 101.288 204.769 102.182 199.288 102.182H166ZM183.93 87.7294H195.013C198.901 87.7294 201.763 86.9929 203.598 85.5199C205.457 84.0469 206.387 81.9943 206.387 79.3622C206.387 77.4545 205.94 75.8125 205.047 74.4361C204.153 73.0355 202.886 71.9609 201.244 71.2124C199.602 70.4396 197.634 70.0533 195.339 70.0533H183.93V87.7294ZM183.93 58.4986H193.854C195.81 58.4986 197.549 58.1726 199.07 57.5206C200.592 56.8686 201.775 55.9268 202.62 54.6953C203.489 53.4638 203.924 51.9787 203.924 50.2401C203.924 47.7528 203.043 45.7969 201.28 44.3722C199.517 42.9474 197.138 42.2351 194.144 42.2351H183.93V58.4986Z" fill="url(#paint0_linear_1_64)"/>
<path d="M266.63 78.1669V46.5455H284.306V102.182H267.427V91.8224H266.847C265.616 95.2273 263.515 97.9318 260.545 99.9361C257.599 101.916 254.037 102.906 249.859 102.906C246.068 102.906 242.736 102.037 239.862 100.298C236.989 98.5597 234.755 96.1328 233.161 93.0178C231.567 89.8786 230.759 86.2081 230.734 82.0064V46.5455H248.447V78.5291C248.471 81.5476 249.268 83.9261 250.837 85.6648C252.407 87.4034 254.544 88.2727 257.249 88.2727C259.011 88.2727 260.593 87.8864 261.994 87.1136C263.418 86.3168 264.541 85.1697 265.362 83.6726C266.207 82.1513 266.63 80.3161 266.63 78.1669Z" fill="url(#paint1_linear_1_64)"/>
<path d="M304.41 123.045C302.285 123.045 300.281 122.876 298.398 122.538C296.514 122.224 294.896 121.802 293.544 121.271L297.456 108.412C299.194 108.991 300.764 109.33 302.165 109.426C303.589 109.523 304.809 109.293 305.823 108.738C306.861 108.207 307.658 107.253 308.214 105.876L308.902 104.21L289.125 46.5455H307.67L317.921 86.2443H318.501L328.896 46.5455H347.55L326.578 107.506C325.564 110.549 324.127 113.229 322.268 115.548C320.432 117.89 318.054 119.725 315.132 121.053C312.234 122.381 308.66 123.045 304.41 123.045Z" fill="url(#paint2_linear_1_64)"/>
<circle cx="72.2404" cy="87.1442" r="71.8558" fill="url(#paint3_linear_1_64)"/>
<path fill-rule="evenodd" clip-rule="evenodd" d="M43.1845 148.397L17.9175 104.633C16.063 101.421 15.9521 97.4906 17.6224 94.1791L39.0089 51.7796C40.9901 47.8518 45.1211 45.4821 49.5119 45.7547L96.4383 48.668C100.118 48.8965 103.439 50.9536 105.283 54.1469L136.615 108.415C127.694 135.428 102.244 154.923 72.2404 154.923C61.842 154.923 51.9905 152.581 43.1845 148.397ZM59.0727 58.5005C61.3686 62.4772 60.1473 67.4806 56.3449 69.6759C52.5425 71.8712 47.5988 70.4272 45.3028 66.4505C43.0069 62.4738 44.2282 57.4704 48.0306 55.2751C51.833 53.0798 56.7767 54.5238 59.0727 58.5005Z" fill="url(#paint4_linear_1_64)"/>
<path d="M48.0988 57.8293C48.0553 57.8376 47.9862 57.8475 47.8855 57.8526C47.5863 57.8677 47.1405 57.8339 46.531 57.7104C45.3129 57.4636 43.7026 56.9136 41.7987 56.0667C38.007 54.38 33.3285 51.6408 28.7853 48.3053C24.2391 44.9675 19.9117 41.0937 16.7697 37.1691C13.5808 33.1861 11.8454 29.4412 11.9355 26.308C12.1327 19.4412 16.4707 13.5771 22.1254 10.3795C27.8084 7.1658 34.3137 6.89632 38.859 10.424C41.0791 12.147 43.1409 15.6851 44.8518 20.4795C46.5335 25.1919 47.7682 30.8048 48.5284 36.3097C49.2887 41.8148 49.5633 47.1302 49.3604 51.2334C49.2586 53.2922 49.0396 54.9778 48.7302 56.2043C48.5755 56.8174 48.4116 57.261 48.2605 57.5589C48.1894 57.6991 48.1331 57.7833 48.0988 57.8293Z" stroke="url(#paint5_linear_1_64)" stroke-width="4"/>
<path d="M165.875 120.634V116.636H183.087V120.634H176.912V137H172.06V120.634H165.875ZM190.353 128.29V137H185.49V116.636H190.194V124.531H190.363C190.707 123.59 191.271 122.854 192.053 122.324C192.842 121.794 193.806 121.528 194.946 121.528C196.02 121.528 196.955 121.767 197.75 122.244C198.546 122.715 199.162 123.381 199.6 124.243C200.044 125.105 200.263 126.112 200.256 127.266V137H195.394V128.22C195.4 127.372 195.188 126.709 194.757 126.232C194.327 125.754 193.72 125.516 192.938 125.516C192.427 125.516 191.977 125.628 191.586 125.854C191.201 126.072 190.9 126.387 190.681 126.798C190.469 127.209 190.359 127.706 190.353 128.29ZM210.43 137.288C208.833 137.288 207.454 136.973 206.294 136.344C205.141 135.707 204.252 134.803 203.629 133.629C203.013 132.449 202.705 131.047 202.705 129.423C202.705 127.846 203.016 126.467 203.639 125.287C204.262 124.1 205.141 123.179 206.274 122.523C207.408 121.86 208.743 121.528 210.281 121.528C211.368 121.528 212.363 121.697 213.264 122.036C214.166 122.374 214.945 122.874 215.601 123.537C216.257 124.2 216.768 125.018 217.132 125.993C217.497 126.961 217.679 128.071 217.679 129.324V130.537H204.405V127.713H213.155C213.148 127.196 213.026 126.735 212.787 126.331C212.548 125.927 212.22 125.612 211.803 125.386C211.392 125.154 210.918 125.038 210.381 125.038C209.837 125.038 209.35 125.161 208.919 125.406C208.488 125.645 208.147 125.973 207.895 126.391C207.643 126.802 207.51 127.269 207.497 127.793V130.666C207.497 131.289 207.62 131.836 207.865 132.307C208.11 132.771 208.458 133.132 208.909 133.391C209.36 133.649 209.897 133.778 210.52 133.778C210.951 133.778 211.342 133.719 211.693 133.599C212.045 133.48 212.346 133.304 212.598 133.072C212.85 132.84 213.039 132.555 213.165 132.217L217.629 132.347C217.444 133.348 217.036 134.219 216.406 134.962C215.783 135.697 214.964 136.271 213.95 136.682C212.936 137.086 211.763 137.288 210.43 137.288ZM231.06 137L225.134 116.636H230.573L233.645 129.98H233.814L237.324 116.636H241.759L245.269 130.01H245.438L248.52 116.636H253.949L248.033 137H243.29L239.621 124.651H239.462L235.793 137H231.06ZM258.593 137.259C257.618 137.259 256.753 137.096 255.998 136.771C255.248 136.44 254.655 135.943 254.218 135.28C253.787 134.61 253.571 133.772 253.571 132.764C253.571 131.916 253.721 131.2 254.019 130.616C254.317 130.033 254.728 129.559 255.252 129.195C255.775 128.83 256.379 128.555 257.061 128.369C257.744 128.177 258.473 128.048 259.249 127.982C260.117 127.902 260.817 127.819 261.347 127.733C261.877 127.64 262.262 127.511 262.5 127.345C262.746 127.173 262.868 126.931 262.868 126.619V126.57C262.868 126.059 262.693 125.665 262.341 125.386C261.99 125.108 261.516 124.969 260.919 124.969C260.276 124.969 259.759 125.108 259.368 125.386C258.977 125.665 258.729 126.049 258.623 126.54L254.138 126.381C254.271 125.453 254.612 124.624 255.162 123.895C255.719 123.159 256.481 122.582 257.449 122.165C258.424 121.741 259.594 121.528 260.959 121.528C261.934 121.528 262.832 121.644 263.654 121.876C264.476 122.102 265.192 122.433 265.801 122.871C266.411 123.302 266.882 123.832 267.213 124.462C267.551 125.091 267.721 125.811 267.721 126.619V137H263.147V134.872H263.027C262.756 135.389 262.408 135.827 261.983 136.185C261.566 136.543 261.072 136.811 260.502 136.99C259.938 137.169 259.302 137.259 258.593 137.259ZM260.094 134.077C260.618 134.077 261.088 133.971 261.506 133.759C261.93 133.546 262.268 133.255 262.52 132.884C262.772 132.506 262.898 132.068 262.898 131.571V130.119C262.759 130.192 262.59 130.259 262.391 130.318C262.199 130.378 261.987 130.434 261.755 130.487C261.523 130.54 261.284 130.587 261.039 130.626C260.793 130.666 260.558 130.703 260.333 130.736C259.875 130.809 259.484 130.921 259.159 131.074C258.841 131.226 258.596 131.425 258.424 131.67C258.258 131.909 258.175 132.194 258.175 132.526C258.175 133.029 258.354 133.414 258.712 133.679C259.077 133.944 259.537 134.077 260.094 134.077ZM273.12 142.727C272.536 142.727 271.986 142.681 271.469 142.588C270.952 142.502 270.508 142.386 270.137 142.24L271.211 138.71C271.688 138.869 272.119 138.962 272.503 138.989C272.894 139.015 273.229 138.952 273.507 138.8C273.792 138.654 274.011 138.392 274.164 138.014L274.353 137.557L268.924 121.727H274.015L276.828 132.625H276.988L279.841 121.727H284.962L279.205 138.462C278.926 139.297 278.532 140.033 278.022 140.669C277.518 141.312 276.865 141.816 276.063 142.18C275.267 142.545 274.286 142.727 273.12 142.727Z" fill="#2B2B2B"/>
<defs>
<linearGradient id="paint0_linear_1_64" x1="248.224" y1="28" x2="256.428" y2="123.381" gradientUnits="userSpaceOnUse">
<stop stop-color="#3A8C6A"/>
<stop offset="1" stop-color="#57C597"/>
</linearGradient>
<linearGradient id="paint1_linear_1_64" x1="248.224" y1="28" x2="256.428" y2="123.381" gradientUnits="userSpaceOnUse">
<stop stop-color="#3A8C6A"/>
<stop offset="1" stop-color="#57C597"/>
</linearGradient>
<linearGradient id="paint2_linear_1_64" x1="248.224" y1="28" x2="256.428" y2="123.381" gradientUnits="userSpaceOnUse">
<stop stop-color="#3A8C6A"/>
<stop offset="1" stop-color="#57C597"/>
</linearGradient>
<linearGradient id="paint3_linear_1_64" x1="110.713" y1="15.2885" x2="33.7673" y2="159" gradientUnits="userSpaceOnUse">
<stop stop-color="#55C294"/>
<stop offset="1" stop-color="#398B69"/>
</linearGradient>
<linearGradient id="paint4_linear_1_64" x1="50.2094" y1="65.8697" x2="88.3872" y2="146.222" gradientUnits="userSpaceOnUse">
<stop stop-color="#FFC267"/>
<stop offset="1" stop-color="#D98200"/>
</linearGradient>
<linearGradient id="paint5_linear_1_64" x1="11.2724" y1="32.4179" x2="49.8929" y2="51.6579" gradientUnits="userSpaceOnUse">
<stop offset="0.346349" stop-color="#D98200"/>
<stop offset="1" stop-color="#FFC267"/>
</linearGradient>
</defs>
</svg>
